<?xml version="1.0" standalone="no"?>
<!DOCTYPE svg PUBLIC "-//W3C//DTD SVG 20010904//EN"
 "http://www.w3.org/TR/2001/REC-SVG-20010904/DTD/svg10.dtd">
<svg version="1.0" xmlns="http://www.w3.org/2000/svg"
 width="1109.000000pt" height="1109.000000pt" viewBox="0 0 1109.000000 1109.000000"
 preserveAspectRatio="xMidYMid meet">
<metadata>
Created by potrace 1.11, written by Peter Selinger 2001-2013
</metadata>
<g transform="translate(0.000000,1109.000000) scale(0.100000,-0.100000)"
fill="#000000" stroke="none">
<path d="M670 8140 l0 -2250 445 0 445 0 0 1855 0 1855 1805 0 1805 0 0 395 0
395 -2250 0 -2250 0 0 -2250z"/>
<path d="M5860 9995 l0 -395 1840 0 1840 0 0 -1855 0 -1855 410 0 410 0 0
2250 0 2250 -2250 0 -2250 0 0 -395z"/>
<path d="M3987 7542 c-10 -2 -17 -13 -18 -25 0 -12 -1 -876 -1 -1921 0 -1264
3 -1901 10 -1905 8 -4 680 -6 750 -2 9 1 12 162 12 769 l0 769 768 -1 767 -1
1 -761 c0 -418 3 -765 6 -770 5 -7 703 -11 761 -5 4 1 6 868 5 1927 l-3 1926
-383 2 c-333 1 -382 -1 -383 -14 0 -8 -1 -356 -1 -772 l-1 -758 -769 0 -768 0
-2 771 -3 772 -366 1 c-201 0 -373 0 -382 -2z"/>
<path d="M670 2980 l0 -2250 2250 0 2250 0 0 395 0 395 -1805 0 -1805 0 0
1855 0 1855 -445 0 -445 0 0 -2250z"/>
<path d="M9540 3375 l0 -1855 -1840 0 -1840 0 0 -395 0 -395 2250 0 2250 0 0
2250 0 2250 -410 0 -410 0 0 -1855z"/>
</g>
</svg>
